# xmcd CD database file
#
# Track frame offsets:
#	150
#	26972
#	50100
#	65542
#	87900
#	104882
#	126190
#	141012
#	164212
#	186175
#	204420
#
# Disc length: 2966 seconds
#
# Revision: 0
# Processed by: cddbd v1.4PL0 Copyright (c) Steve Scherf et al.
# Submitted via: CDex 1.50beta9
#
DISCID=af0b940b
DTITLE=Terrain - Self Titled
DYEAR=2000
DGENRE=Jazz
TTITLE0=N.O.G.S.
TTITLE1=When We Were Young
TTITLE2=Stay Tuned
TTITLE3=Daisy
TTITLE4=Tell You What
TTITLE5=Not Today, Not Tommorow
TTITLE6=Terrain
TTITLE7=Dreaming Of Brazil
TTITLE8=If You Only Knew
TTITLE9=Rough Edges
TTITLE10=Buzzer
EXTD=YEAR: 2000
EXTT0=
EXTT1=
EXTT2=
EXTT3=
EXTT4=
EXTT5=
EXTT6=
EXTT7=
EXTT8=
EXTT9=
EXTT10=
PLAYORDER=
